<?xml version="1.0" encoding="UTF-8" standalone="no"?>
<!DOCTYPE svg PUBLIC "-//W3C//DTD SVG 1.1//EN" "http://www.w3.org/Graphics/SVG/1.1/DTD/svg11.dtd">
<svg version="1.1" xmlns="http://www.w3.org/2000/svg" xmlns:xlink="http://www.w3.org/1999/xlink" preserveAspectRatio="xMidYMid meet" viewBox="0 0 250 250" width="400" height="400"><defs><path d="M148.84 34.2L148.96 34.21L149.08 34.23L149.19 34.25L149.31 34.28L149.42 34.31L149.53 34.34L149.64 34.38L149.75 34.42L149.85 34.47L149.96 34.52L150.06 34.58L150.15 34.63L150.25 34.7L150.34 34.76L150.43 34.83L150.52 34.9L150.6 34.98L150.69 35.06L150.76 35.14L150.84 35.22L150.91 35.31L150.98 35.4L151.05 35.49L151.11 35.59L151.17 35.69L151.22 35.79L151.27 35.89L151.32 35.99L151.36 36.1L151.4 36.21L151.43 36.32L151.46 36.43L151.49 36.55L151.51 36.66L151.53 36.78L151.54 36.9L151.55 37.02L151.55 37.14L151.55 96.14L210.55 96.14L210.67 96.14L210.79 96.15L210.91 96.16L211.03 96.18L211.14 96.2L211.26 96.23L211.37 96.26L211.48 96.29L211.59 96.33L211.7 96.37L211.8 96.42L211.91 96.47L212.01 96.53L212.1 96.58L212.2 96.65L212.29 96.71L212.38 96.78L212.47 96.85L212.55 96.93L212.64 97.01L212.71 97.09L212.79 97.17L212.86 97.26L212.93 97.35L213 97.44L213.06 97.54L213.12 97.64L213.17 97.74L213.22 97.84L213.27 97.94L213.31 98.05L213.35 98.16L213.38 98.27L213.41 98.38L213.44 98.5L213.46 98.61L213.48 98.73L213.49 98.85L213.5 98.97L213.5 99.09L213.5 146.29L213.5 146.41L213.49 146.53L213.48 146.65L213.46 146.77L213.44 146.89L213.41 147L213.38 147.11L213.35 147.22L213.31 147.33L213.27 147.44L213.22 147.54L213.17 147.65L213.12 147.75L213.06 147.85L213 147.94L212.93 148.03L212.86 148.12L212.79 148.21L212.71 148.3L212.64 148.38L212.55 148.46L212.47 148.53L212.38 148.6L212.29 148.67L212.2 148.74L212.1 148.8L212.01 148.86L211.91 148.91L211.8 148.96L211.7 149.01L211.59 149.05L211.48 149.09L211.37 149.13L211.26 149.16L211.14 149.18L211.03 149.2L210.91 149.22L210.79 149.23L210.67 149.24L210.55 149.24L151.55 149.24L151.55 208.24L151.55 208.36L151.54 208.48L151.53 208.6L151.51 208.72L151.49 208.84L151.46 208.95L151.43 209.06L151.4 209.17L151.36 209.28L151.32 209.39L151.27 209.49L151.22 209.6L151.17 209.7L151.11 209.8L151.05 209.89L150.98 209.98L150.91 210.07L150.84 210.16L150.76 210.25L150.69 210.33L150.6 210.41L150.52 210.48L150.43 210.55L150.34 210.62L150.25 210.69L150.15 210.75L150.06 210.81L149.96 210.86L149.85 210.91L149.75 210.96L149.64 211L149.53 211.04L149.42 211.08L149.31 211.11L149.19 211.13L149.08 211.15L148.96 211.17L148.84 211.18L148.72 211.19L148.6 211.19L101.4 211.19L101.28 211.19L101.16 211.18L101.04 211.17L100.92 211.15L100.81 211.13L100.69 211.11L100.58 211.08L100.47 211.04L100.36 211L100.25 210.96L100.15 210.91L100.04 210.86L99.94 210.81L99.85 210.75L99.75 210.69L99.66 210.62L99.57 210.55L99.48 210.48L99.4 210.41L99.31 210.33L99.24 210.25L99.16 210.16L99.09 210.07L99.02 209.98L98.95 209.89L98.89 209.8L98.83 209.7L98.78 209.6L98.73 209.49L98.68 209.39L98.64 209.28L98.6 209.17L98.57 209.06L98.54 208.95L98.51 208.84L98.49 208.72L98.47 208.6L98.46 208.48L98.45 208.36L98.45 208.24L98.45 149.24L39.45 149.24L39.33 149.24L39.21 149.23L39.09 149.22L38.97 149.2L38.86 149.18L38.74 149.16L38.63 149.13L38.52 149.09L38.41 149.05L38.3 149.01L38.2 148.96L38.09 148.91L37.99 148.86L37.9 148.8L37.8 148.74L37.71 148.67L37.62 148.6L37.53 148.53L37.45 148.46L37.36 148.38L37.29 148.3L37.21 148.21L37.14 148.12L37.07 148.03L37 147.94L36.94 147.85L36.88 147.75L36.83 147.65L36.78 147.54L36.73 147.44L36.69 147.33L36.65 147.22L36.62 147.11L36.59 147L36.56 146.89L36.54 146.77L36.52 146.65L36.51 146.53L36.5 146.41L36.5 146.29L36.5 99.09L36.5 98.97L36.51 98.85L36.52 98.73L36.54 98.61L36.56 98.5L36.59 98.38L36.62 98.27L36.65 98.16L36.69 98.05L36.73 97.94L36.78 97.84L36.83 97.74L36.88 97.64L36.94 97.54L37 97.44L37.07 97.35L37.14 97.26L37.21 97.17L37.29 97.09L37.36 97.01L37.45 96.93L37.53 96.85L37.62 96.78L37.71 96.71L37.8 96.65L37.9 96.58L37.99 96.53L38.09 96.47L38.2 96.42L38.3 96.37L38.41 96.33L38.52 96.29L38.63 96.26L38.74 96.23L38.86 96.2L38.97 96.18L39.09 96.16L39.21 96.15L39.33 96.14L39.45 96.14L98.45 96.14L98.45 37.14L98.45 37.02L98.46 36.9L98.47 36.78L98.49 36.66L98.51 36.55L98.54 36.43L98.57 36.32L98.6 36.21L98.64 36.1L98.68 35.99L98.73 35.89L98.78 35.79L98.83 35.69L98.89 35.59L98.95 35.49L99.02 35.4L99.09 35.31L99.16 35.22L99.24 35.14L99.31 35.06L99.4 34.98L99.48 34.9L99.57 34.83L99.66 34.76L99.75 34.7L99.85 34.63L99.94 34.58L100.04 34.52L100.15 34.47L100.25 34.42L100.36 34.38L100.47 34.34L100.58 34.31L100.69 34.28L100.81 34.25L100.92 34.23L101.04 34.21L101.16 34.2L101.28 34.19L101.4 34.19L148.6 34.19L148.72 34.19L148.84 34.2Z" id="f2AkPGeFd"></path><path d="M124.63 42.34L124.75 42.36L124.88 42.39L124.99 42.43L125.11 42.47L125.22 42.53L125.33 42.59L125.43 42.66L125.53 42.74L125.63 42.83L125.71 42.93L125.8 43.03L125.87 43.15L125.94 43.27L125.99 43.4L126.04 43.54L130.72 68.31L135.66 72.68L135.45 70.94L135.15 68.8L134.86 66.82L134.57 64.97L134.29 63.27L134.02 61.69L133.77 60.25L133.55 58.92L133.35 57.72L133.19 56.62L133.08 55.63L133 54.74L132.99 53.95L133.02 53.25L133.12 52.63L133.29 52.09L133.53 51.62L133.85 51.23L134.26 50.89L134.75 50.62L135.34 50.4L136.03 50.22L136.82 50.09L137.73 49.99L138.75 49.93L139.9 49.89L141.17 49.87L142.58 49.87L144.12 49.88L145.81 49.89L147.64 49.9L149.63 49.9L151.72 50.04L153.83 50.45L155.97 51.12L158.13 52.04L160.3 53.21L162.49 54.61L164.68 56.23L166.87 58.07L169.07 60.11L171.25 62.36L173.43 64.78L175.6 67.39L177.75 70.17L179.87 73.11L181.97 76.19L184.04 79.42L186.07 82.78L188.06 86.27L190.01 89.86L191.92 93.57L193.77 97.37L195.56 101.25L197.3 105.21L198.97 109.24L200.57 113.33L202.1 117.46L203.55 121.64L204.92 125.85L206.21 130.08L207.4 134.32L208.5 138.57L209.51 142.81L210.41 147.03L211.2 151.23L211.89 155.4L212.46 159.52L212.91 163.59L213.23 167.6L213.43 171.54L213.5 175.4L213.46 179.06L213.34 182.41L213.15 185.46L212.88 188.22L212.54 190.7L212.13 192.92L211.65 194.89L211.09 196.61L210.47 198.1L209.78 199.37L209.03 200.43L208.22 201.3L207.34 201.98L206.4 202.48L205.39 202.82L204.34 203.01L203.22 203.06L202.05 202.98L200.82 202.78L199.54 202.47L198.21 202.07L196.83 201.58L195.4 201.02L193.92 200.4L192.4 199.73L190.83 199.03L189.21 198.29L187.56 197.54L185.86 196.78L184.12 196.03L182.35 195.29L180.54 194.59L178.69 193.93L176.81 193.31L174.9 192.76L172.95 192.29L170.98 191.9L168.97 191.61L166.94 191.43L164.89 191.36L162.87 191.28L160.95 191.05L159.13 190.66L157.4 190.12L155.77 189.43L154.22 188.6L152.77 187.62L151.4 186.51L150.11 185.27L148.9 183.89L147.77 182.39L146.71 180.76L145.72 179.01L144.81 177.15L143.96 175.17L143.17 173.07L142.45 170.87L141.79 168.56L141.18 166.15L140.63 163.65L140.13 161.04L139.68 158.35L139.28 155.56L138.92 152.69L138.6 149.74L138.32 146.71L138.07 143.6L137.86 140.42L137.69 137.17L137.54 133.85L137.42 130.47L137.32 127.03L137.24 123.54L137.18 119.99L137.14 116.39L137.11 112.74L137.09 109.05L137.08 105.32L137.07 101.56L137.07 97.75L137.05 94.04L136.97 90.52L136.9 88.77L123.6 79.62L111.82 89.24L111.77 90.52L111.69 94.04L111.66 97.75L111.66 101.56L111.66 105.32L111.65 109.05L111.63 112.74L111.6 116.39L111.56 119.99L111.5 123.54L111.42 127.03L111.32 130.47L111.2 133.85L111.05 137.17L110.87 140.42L110.66 143.6L110.42 146.71L110.14 149.74L109.82 152.69L109.46 155.56L109.06 158.35L108.61 161.04L108.11 163.65L107.55 166.15L106.95 168.56L106.28 170.87L105.56 173.07L104.78 175.17L103.93 177.15L103.01 179.01L102.03 180.76L100.97 182.39L99.84 183.89L98.63 185.27L97.34 186.51L95.97 187.62L94.51 188.6L92.97 189.43L91.33 190.12L89.61 190.66L87.79 191.05L85.87 191.28L83.85 191.36L81.79 191.43L79.76 191.61L77.76 191.9L75.78 192.29L73.84 192.76L71.93 193.31L70.04 193.93L68.2 194.59L66.39 195.29L64.61 196.03L62.88 196.78L61.18 197.54L59.52 198.29L57.91 199.03L56.34 199.73L54.82 200.4L53.34 201.02L51.91 201.58L50.53 202.07L49.2 202.47L47.92 202.78L46.69 202.98L45.52 203.06L44.4 203.01L43.34 202.82L42.34 202.48L41.4 201.98L40.52 201.3L39.71 200.43L38.95 199.37L38.26 198.1L37.64 196.61L37.09 194.89L36.61 192.92L36.19 190.7L35.85 188.22L35.59 185.46L35.39 182.41L35.28 179.06L35.24 175.4L35.3 171.54L35.5 167.6L35.83 163.59L36.28 159.52L36.85 155.4L37.53 151.23L38.33 147.03L39.23 142.81L40.23 138.57L41.34 134.32L42.53 130.08L43.82 125.85L45.19 121.64L46.64 117.46L48.17 113.33L49.77 109.24L51.44 105.21L53.18 101.25L54.97 97.37L56.82 93.57L58.72 89.86L60.67 86.27L62.67 82.78L64.7 79.42L66.77 76.19L68.87 73.11L70.99 70.17L73.14 67.39L75.3 64.78L77.48 62.36L79.67 60.11L81.86 58.07L84.06 56.23L86.25 54.61L88.44 53.21L90.61 52.04L92.77 51.12L94.9 50.45L97.02 50.04L99.1 49.9L101.09 49.9L102.93 49.89L104.62 49.88L106.16 49.87L107.57 49.87L108.84 49.89L109.98 49.93L111.01 49.99L111.91 50.09L112.71 50.22L113.4 50.4L113.99 50.62L114.48 50.89L114.88 51.23L115.2 51.62L115.45 52.09L115.61 52.63L115.71 53.25L115.75 53.95L115.73 54.74L115.66 55.63L115.54 56.62L115.38 57.72L115.19 58.92L114.97 60.25L114.72 61.69L114.45 63.27L114.17 64.97L113.88 66.82L113.58 68.8L113.29 70.94L113.27 71.12L117.48 68.31L122.72 43.69L122.75 43.54L122.8 43.41L122.85 43.28L122.92 43.16L122.99 43.04L123.07 42.94L123.15 42.84L123.25 42.75L123.34 42.67L123.45 42.6L123.55 42.54L123.67 42.48L123.78 42.44L123.9 42.4L124.02 42.37L124.14 42.34L124.26 42.33L124.39 42.33L124.51 42.33L124.63 42.34Z" id="a2OSDYrm4P"></path><path d="M135.25 0.41L140.29 0.93L145.26 1.64L150.18 2.54L155.02 3.64L159.8 4.92L164.49 6.38L169.11 8.02L173.64 9.83L178.08 11.81L182.42 13.96L186.67 16.27L190.82 18.74L194.87 21.36L198.8 24.13L202.63 27.05L206.33 30.11L209.91 33.3L213.37 36.63L216.7 40.09L219.89 43.67L222.95 47.37L225.87 51.2L228.64 55.13L231.26 59.18L233.73 63.33L236.04 67.58L238.19 71.92L240.17 76.36L241.98 80.89L243.62 85.51L245.08 90.2L246.36 94.98L247.46 99.82L248.36 104.74L249.07 109.71L249.59 114.75L249.9 119.85L250 125L249.9 130.15L249.59 135.25L249.07 140.29L248.36 145.26L247.46 150.18L246.36 155.02L245.08 159.8L243.62 164.49L241.98 169.11L240.17 173.64L238.19 178.08L236.04 182.42L233.73 186.67L231.26 190.82L228.64 194.87L225.87 198.8L222.95 202.63L219.89 206.33L216.7 209.91L213.37 213.37L209.91 216.7L206.33 219.89L202.63 222.95L198.8 225.87L194.87 228.64L190.82 231.26L186.67 233.73L182.42 236.04L178.08 238.19L173.64 240.17L169.11 241.98L164.49 243.62L159.8 245.08L155.02 246.36L150.18 247.46L145.26 248.36L140.29 249.07L135.25 249.59L130.15 249.9L125 250L119.85 249.9L114.75 249.59L109.71 249.07L104.74 248.36L99.82 247.46L94.98 246.36L90.2 245.08L85.51 243.62L80.89 241.98L76.36 240.17L71.92 238.19L67.58 236.04L63.33 233.73L59.18 231.26L55.13 228.64L51.2 225.87L47.37 222.95L43.67 219.89L40.09 216.7L36.63 213.37L33.3 209.91L30.11 206.33L27.05 202.63L24.13 198.8L21.36 194.87L18.74 190.82L16.27 186.67L13.96 182.42L11.81 178.08L9.83 173.64L8.02 169.11L6.38 164.49L4.92 159.8L3.64 155.02L2.54 150.18L1.64 145.26L0.93 140.29L0.41 135.25L0.1 130.15L0 125L0.1 119.85L0.41 114.75L0.93 109.71L1.64 104.74L2.54 99.82L3.64 94.98L4.92 90.2L6.38 85.51L8.02 80.89L9.83 76.36L11.81 71.92L13.96 67.58L16.27 63.33L18.74 59.18L21.36 55.13L24.13 51.2L27.05 47.37L30.11 43.67L33.3 40.09L36.63 36.63L40.09 33.3L43.67 30.11L47.37 27.05L51.2 24.13L55.13 21.36L59.18 18.74L63.33 16.27L67.58 13.96L71.92 11.81L76.36 9.83L80.89 8.02L85.51 6.38L90.2 4.92L94.98 3.64L99.82 2.54L104.74 1.64L109.71 0.93L114.75 0.41L119.85 0.1L125 0L130.15 0.1L135.25 0.41ZM116.8 25.33L112.77 25.74L108.79 26.31L104.86 27.03L100.98 27.91L97.16 28.93L93.41 30.1L89.71 31.41L86.09 32.86L82.54 34.45L79.06 36.17L75.66 38.02L72.34 39.99L69.11 42.09L65.96 44.3L62.9 46.64L59.94 49.08L57.07 51.64L54.3 54.3L51.64 57.07L49.08 59.94L46.64 62.9L44.3 65.96L42.09 69.11L39.99 72.34L38.02 75.66L36.17 79.06L34.45 82.54L32.86 86.09L31.41 89.71L30.1 93.41L28.93 97.16L27.91 100.98L27.03 104.86L26.31 108.79L25.74 112.77L25.33 116.8L25.08 120.88L25 125L25.08 129.12L25.33 133.2L25.74 137.23L26.31 141.21L27.03 145.14L27.91 149.02L28.93 152.84L30.1 156.59L31.41 160.29L32.86 163.91L34.45 167.46L36.17 170.94L38.02 174.34L39.99 177.66L42.09 180.89L44.3 184.04L46.64 187.1L49.08 190.06L51.64 192.93L54.3 195.7L57.07 198.36L59.94 200.92L62.9 203.36L65.96 205.7L69.11 207.91L72.34 210.01L75.66 211.98L79.06 213.83L82.54 215.55L86.09 217.14L89.71 218.59L93.41 219.9L97.16 221.07L100.98 222.09L104.86 222.97L108.79 223.69L112.77 224.26L116.8 224.67L120.88 224.92L125 225L129.12 224.92L133.2 224.67L137.23 224.26L141.21 223.69L145.14 222.97L149.02 222.09L152.84 221.07L156.59 219.9L160.29 218.59L163.91 217.14L167.46 215.55L170.94 213.83L174.34 211.98L177.66 210.01L180.89 207.91L184.04 205.7L187.1 203.36L190.06 200.92L192.93 198.36L195.7 195.7L198.36 192.93L200.92 190.06L203.36 187.1L205.7 184.04L207.91 180.89L210.01 177.66L211.98 174.34L213.83 170.94L215.55 167.46L217.14 163.91L218.59 160.29L219.9 156.59L221.07 152.84L222.09 149.02L222.97 145.14L223.69 141.21L224.26 137.23L224.67 133.2L224.92 129.12L225 125L224.92 120.88L224.67 116.8L224.26 112.77L223.69 108.79L222.97 104.86L222.09 100.98L221.07 97.16L219.9 93.41L218.59 89.71L217.14 86.09L215.55 82.54L213.83 79.06L211.98 75.66L210.01 72.34L207.91 69.11L205.7 65.96L203.36 62.9L200.92 59.94L198.36 57.07L195.7 54.3L192.93 51.64L190.06 49.08L187.1 46.64L184.04 44.3L180.89 42.09L177.66 39.99L174.34 38.02L170.94 36.17L167.46 34.45L163.91 32.86L160.29 31.41L156.59 30.1L152.84 28.93L149.02 27.91L145.14 27.03L141.21 26.31L137.23 25.74L133.2 25.33L129.12 25.08L125 25L120.88 25.08L116.8 25.33Z" id="acgN5z5Bj"></path></defs><g><g><g><use xlink:href="#f2AkPGeFd" opacity="1" fill="#a70808" fill-opacity="1"></use><g><use xlink:href="#f2AkPGeFd" opacity="1" fill-opacity="0" stroke="#000000" stroke-width="1" stroke-opacity="0.61"></use></g></g><g><use xlink:href="#a2OSDYrm4P" opacity="1" fill="#66c43f" fill-opacity="1"></use><g><use xlink:href="#a2OSDYrm4P" opacity="1" fill-opacity="0" stroke="#000000" stroke-width="1" stroke-opacity="0.5"></use></g></g><g><use xlink:href="#acgN5z5Bj" opacity="1" fill="#aa0d03" fill-opacity="1"></use><g><use xlink:href="#acgN5z5Bj" opacity="1" fill-opacity="0" stroke="#000000" stroke-width="1" stroke-opacity="0.61"></use></g></g></g></g></svg>